<svg xmlns="http://www.w3.org/2000/svg" viewBox="0 0 560 380" role="img" aria-hidden="true">
<defs>
  <filter id="paper" x="-10%" y="-10%" width="120%" height="120%">
    <feTurbulence type="fractalNoise" baseFrequency="0.02" numOctaves="3" seed="8" result="noise"/>
    <feColorMatrix in="noise" type="saturate" values="0" result="grain"/>
    <feBlend in="SourceGraphic" in2="grain" mode="multiply" opacity="0.13"/>
  </filter>
  <style>
    .line{fill:none;stroke:#27364a;stroke-width:8;stroke-linecap:round;stroke-linejoin:round}.thin{fill:none;stroke:#27364a;stroke-width:5;stroke-linecap:round;stroke-linejoin:round}.ink{fill:#27364a}.skin{fill:#f4b997}.hair{fill:#52322a}.paper{fill:#fff7e8}.shadow{fill:#27364a;opacity:.08}.smile{fill:none;stroke:#27364a;stroke-width:4;stroke-linecap:round}.blush{fill:#ef8b84;opacity:.45}
  </style>
</defs>
<rect width="560" height="380" fill="#f7efe2" filter="url(#paper)"/>
<circle cx="86" cy="74" r="44" fill="#4f9f68" opacity=".22"/>
<circle cx="494" cy="312" r="70" fill="#ffffff" opacity=".22"/>
<path class="thin" stroke="#ffffff" opacity=".62" d="M37 102c58-39 116-39 174 0M393 96c33-22 65-22 98 0"/>
<g transform="translate(209 103) rotate(-3)"><rect class="paper" x="2" y="172" width="66" height="58"/><rect class="paper" x="68" y="172" width="66" height="58"/><rect class="paper" x="35" y="114" width="66" height="58"/><rect class="paper" x="2" y="56" width="66" height="58"/><rect class="paper" x="68" y="56" width="66" height="58"/><rect class="paper" x="35" y="-2" width="66" height="58"/><path class="line" d="M2 230h132V56H101V-2H35v58H2zM68 56v58M68 172v58M2 114h132M2 172h132"/></g>
<ellipse class="shadow" cx="276" cy="334" rx="150" ry="19"/>
<g transform="translate(116 96) rotate(-8)"><circle class="skin" cx="48" cy="32" r="30"/><path class="hair" d="M23 24c7-30 35-39 58-18 4 18-8 33-21 42-6-18-22-24-37-24z"/><path class="smile" d="M40 40q8 7 18 0"/><rect x="24" y="61" width="56" height="76" rx="23" fill="#2b8fb8"/><path class="line" d="M28 91-3 134M78 88l31 32M42 136 28 201M68 136l48 48"/></g>
<circle cx="332" cy="121" r="13" fill="#ef6b5a" stroke="#27364a" stroke-width="5"/>
</svg>
