<svg xmlns="http://www.w3.org/2000/svg" viewBox="0 0 560 380" role="img" aria-hidden="true">
<defs>
  <filter id="paper" x="-10%" y="-10%" width="120%" height="120%">
    <feTurbulence type="fractalNoise" baseFrequency="0.02" numOctaves="3" seed="8" result="noise"/>
    <feColorMatrix in="noise" type="saturate" values="0" result="grain"/>
    <feBlend in="SourceGraphic" in2="grain" mode="multiply" opacity="0.13"/>
  </filter>
  <style>
    .line{fill:none;stroke:#27364a;stroke-width:8;stroke-linecap:round;stroke-linejoin:round}.thin{fill:none;stroke:#27364a;stroke-width:5;stroke-linecap:round;stroke-linejoin:round}.ink{fill:#27364a}.skin{fill:#f4b997}.hair{fill:#52322a}.paper{fill:#fff7e8}.shadow{fill:#27364a;opacity:.08}.smile{fill:none;stroke:#27364a;stroke-width:4;stroke-linecap:round}.blush{fill:#ef8b84;opacity:.45}
  </style>
</defs>
<rect width="560" height="380" fill="#d9ecf0" filter="url(#paper)"/>
<circle cx="86" cy="74" r="44" fill="#ef6b5a" opacity=".22"/>
<circle cx="494" cy="312" r="70" fill="#ffffff" opacity=".22"/>
<path class="thin" stroke="#ffffff" opacity=".62" d="M37 102c58-39 116-39 174 0M393 96c33-22 65-22 98 0"/>
<path class="shadow" d="M92 319c95-32 263-34 379-2 21 6 18 26-5 30-127 20-257 18-375-2-22-4-21-19 1-26z"/>
<path fill="#8a5a32" stroke="#27364a" stroke-width="7" stroke-linejoin="round" d="M124 219 392 187l48 66-276 38z"/>
<circle cx="173" cy="302" r="29" fill="#27364a"/><circle cx="173" cy="302" r="12" fill="#f4bd45"/><circle cx="394" cy="273" r="29" fill="#27364a"/><circle cx="394" cy="273" r="12" fill="#f4bd45"/>
<path class="line" d="M173 218l-24-50 65 36M383 188l26-51"/>
<g transform="translate(245 102) rotate(8)"><circle class="skin" cx="40" cy="32" r="29"/><path class="hair" d="M17 26c9-29 39-37 61-12-2 16-11 27-25 33-5-16-20-22-36-21z"/><path class="smile" d="M32 39q8 7 17 0"/><rect x="17" y="60" width="60" height="76" rx="24" fill="#ef6b5a"/><path class="line" d="M21 83 81 124M61 136l46 44M28 135l-34 38"/></g>
<path class="thin" stroke="#2b8fb8" d="M88 181c-23-9-38-8-54 4M461 147c19-14 37-16 59-8"/>
</svg>
