<svg xmlns="http://www.w3.org/2000/svg" viewBox="0 0 560 380" role="img" aria-hidden="true">
<defs>
  <filter id="paper" x="-10%" y="-10%" width="120%" height="120%">
    <feTurbulence type="fractalNoise" baseFrequency="0.02" numOctaves="3" seed="8" result="noise"/>
    <feColorMatrix in="noise" type="saturate" values="0" result="grain"/>
    <feBlend in="SourceGraphic" in2="grain" mode="multiply" opacity="0.13"/>
  </filter>
  <style>
    .line{fill:none;stroke:#27364a;stroke-width:8;stroke-linecap:round;stroke-linejoin:round}.thin{fill:none;stroke:#27364a;stroke-width:5;stroke-linecap:round;stroke-linejoin:round}.ink{fill:#27364a}.skin{fill:#f4b997}.hair{fill:#52322a}.paper{fill:#fff7e8}.shadow{fill:#27364a;opacity:.08}.smile{fill:none;stroke:#27364a;stroke-width:4;stroke-linecap:round}.blush{fill:#ef8b84;opacity:.45}
  </style>
</defs>
<rect width="560" height="380" fill="#f7d9cc" filter="url(#paper)"/>
<circle cx="86" cy="74" r="44" fill="#f5c453" opacity=".22"/>
<circle cx="494" cy="312" r="70" fill="#ffffff" opacity=".22"/>
<path class="thin" stroke="#ffffff" opacity=".62" d="M37 102c58-39 116-39 174 0M393 96c33-22 65-22 98 0"/>
<ellipse class="shadow" cx="286" cy="324" rx="172" ry="22"/>
<path class="thin" stroke="#ef6b5a" d="M117 244 C205 203 340 203 445 245"/>
<path class="thin" stroke="#ef6b5a" d="M112 271 C211 233 340 233 448 271"/>
<g transform="translate(96 143)"><circle class="skin" cx="42" cy="30" r="28"/><path class="hair" d="M16 34c-4-31 16-46 38-37 22 8 26 29 10 42-7-15-25-15-48-5z"/><path class="smile" d="M34 36q8 8 18 0"/><rect x="20" y="56" width="49" height="86" rx="21" fill="#4f9f68"/><path class="line" d="M24 79 4 127M67 80l28 52M30 140l-8 45M61 140l14 45"/></g>
<g transform="translate(382 144)"><circle class="skin" cx="43" cy="30" r="28"/><path class="hair" d="M17 25c3-29 33-39 54-20 6 11 3 25-8 39-8-16-26-21-46-19z"/><path class="smile" d="M35 36q8 8 18 0"/><rect x="21" y="57" width="50" height="85" rx="20" fill="#7b6cc7"/><path class="line" d="M22 83-1 132M70 82l30 50M30 140l-7 45M61 140l15 45"/></g>
<g transform="translate(246 104) rotate(-4)"><circle class="skin" cx="48" cy="32" r="30"/><path class="hair" d="M20 29c-1-31 28-44 58-23 10 14 4 30-7 41-10-18-30-22-51-18z"/><path class="smile" d="M40 40q8 8 18 0"/><rect x="26" y="61" width="55" height="82" rx="24" fill="#2b8fb8"/><path class="line" d="M28 92 2 124M80 90l34 23M41 140 20 186M67 140l34 44"/></g>
</svg>
