<svg xmlns="http://www.w3.org/2000/svg" viewBox="0 0 560 380" role="img" aria-hidden="true">
<defs>
  <filter id="paper" x="-10%" y="-10%" width="120%" height="120%">
    <feTurbulence type="fractalNoise" baseFrequency="0.02" numOctaves="3" seed="8" result="noise"/>
    <feColorMatrix in="noise" type="saturate" values="0" result="grain"/>
    <feBlend in="SourceGraphic" in2="grain" mode="multiply" opacity="0.13"/>
  </filter>
  <style>
    .line{fill:none;stroke:#27364a;stroke-width:8;stroke-linecap:round;stroke-linejoin:round}.thin{fill:none;stroke:#27364a;stroke-width:5;stroke-linecap:round;stroke-linejoin:round}.ink{fill:#27364a}.skin{fill:#f4b997}.hair{fill:#52322a}.paper{fill:#fff7e8}.shadow{fill:#27364a;opacity:.08}.smile{fill:none;stroke:#27364a;stroke-width:4;stroke-linecap:round}.blush{fill:#ef8b84;opacity:.45}
  </style>
</defs>
<rect width="560" height="380" fill="#eee3f7" filter="url(#paper)"/>
<circle cx="86" cy="74" r="44" fill="#2b8fb8" opacity=".22"/>
<circle cx="494" cy="312" r="70" fill="#ffffff" opacity=".22"/>
<path class="thin" stroke="#ffffff" opacity=".62" d="M37 102c58-39 116-39 174 0M393 96c33-22 65-22 98 0"/>
<ellipse class="shadow" cx="282" cy="322" rx="149" ry="22"/>
<g transform="translate(109 93)"><circle class="skin" cx="53" cy="32" r="30"/><path class="hair" d="M25 25c9-30 39-38 63-13-1 18-14 31-29 38-7-17-22-24-34-25z"/><path class="smile" d="M45 39q8 8 18 0"/><rect x="26" y="61" width="58" height="84" rx="24" fill="#f4bd45"/><path class="line" d="M31 87 111 112M68 145l38 51M40 145l-33 49"/></g>
<path class="thin" d="M218 202c40 28 60 60 51 94"/>
<circle cx="268" cy="302" r="36" fill="#ef6b5a" stroke="#27364a" stroke-width="8"/><circle cx="268" cy="302" r="13" fill="#fff7e8" stroke="#27364a" stroke-width="5"/>
<circle cx="351" cy="163" r="56" fill="#2b8fb8" opacity=".12"/><circle cx="420" cy="232" r="42" fill="#4f9f68" opacity=".16"/>
</svg>
