<svg xmlns="http://www.w3.org/2000/svg" viewBox="0 0 560 380" role="img" aria-hidden="true">
<defs>
  <filter id="paper" x="-10%" y="-10%" width="120%" height="120%">
    <feTurbulence type="fractalNoise" baseFrequency="0.02" numOctaves="3" seed="8" result="noise"/>
    <feColorMatrix in="noise" type="saturate" values="0" result="grain"/>
    <feBlend in="SourceGraphic" in2="grain" mode="multiply" opacity="0.13"/>
  </filter>
  <style>
    .line{fill:none;stroke:#27364a;stroke-width:8;stroke-linecap:round;stroke-linejoin:round}.thin{fill:none;stroke:#27364a;stroke-width:5;stroke-linecap:round;stroke-linejoin:round}.ink{fill:#27364a}.skin{fill:#f4b997}.hair{fill:#52322a}.paper{fill:#fff7e8}.shadow{fill:#27364a;opacity:.08}.smile{fill:none;stroke:#27364a;stroke-width:4;stroke-linecap:round}.blush{fill:#ef8b84;opacity:.45}
  </style>
</defs>
<rect width="560" height="380" fill="#f7e7d4" filter="url(#paper)"/>
<circle cx="86" cy="74" r="44" fill="#ef6b5a" opacity=".22"/>
<circle cx="494" cy="312" r="70" fill="#ffffff" opacity=".22"/>
<path class="thin" stroke="#ffffff" opacity=".62" d="M37 102c58-39 116-39 174 0M393 96c33-22 65-22 98 0"/>
<ellipse class="shadow" cx="282" cy="326" rx="186" ry="22"/>
<path fill="#fff7e8" stroke="#27364a" stroke-width="8" stroke-linejoin="round" d="M129 290 279 98l151 192z"/><path fill="#ef6b5a" opacity=".82" d="M279 107 179 290h200z"/><path fill="#f4bd45" stroke="#27364a" stroke-width="7" stroke-linejoin="round" d="M247 290c9-48 22-76 32-76s25 28 35 76z"/>
<path class="thin" d="M134 290h293M279 98v192"/>
<g transform="translate(96 223)"><rect x="0" y="0" width="70" height="44" rx="10" fill="#2b8fb8" stroke="#27364a" stroke-width="6"/><circle cx="19" cy="17" r="7" fill="#fff7e8"/><circle cx="51" cy="17" r="7" fill="#fff7e8"/></g>
<g transform="translate(399 218)"><circle class="skin" cx="35" cy="28" r="25"/><path class="hair" d="M15 24c3-25 31-35 51-14 1 15-10 26-22 33-6-14-18-20-29-19z"/><path class="smile" d="M28 34q7 7 15 0"/><rect x="13" y="52" width="47" height="59" rx="19" fill="#4f9f68"/></g>
</svg>
