<svg xmlns="http://www.w3.org/2000/svg" viewBox="0 0 560 380" role="img" aria-hidden="true">
<defs>
  <filter id="paper" x="-10%" y="-10%" width="120%" height="120%">
    <feTurbulence type="fractalNoise" baseFrequency="0.02" numOctaves="3" seed="8" result="noise"/>
    <feColorMatrix in="noise" type="saturate" values="0" result="grain"/>
    <feBlend in="SourceGraphic" in2="grain" mode="multiply" opacity="0.13"/>
  </filter>
  <style>
    .line{fill:none;stroke:#27364a;stroke-width:8;stroke-linecap:round;stroke-linejoin:round}.thin{fill:none;stroke:#27364a;stroke-width:5;stroke-linecap:round;stroke-linejoin:round}.ink{fill:#27364a}.skin{fill:#f4b997}.hair{fill:#52322a}.paper{fill:#fff7e8}.shadow{fill:#27364a;opacity:.08}.smile{fill:none;stroke:#27364a;stroke-width:4;stroke-linecap:round}.blush{fill:#ef8b84;opacity:.45}
  </style>
</defs>
<rect width="560" height="380" fill="#d9ecf7" filter="url(#paper)"/>
<circle cx="86" cy="74" r="44" fill="#f4bd45" opacity=".22"/>
<circle cx="494" cy="312" r="70" fill="#ffffff" opacity=".22"/>
<path class="thin" stroke="#ffffff" opacity=".62" d="M37 102c58-39 116-39 174 0M393 96c33-22 65-22 98 0"/>
<circle cx="464" cy="74" r="39" fill="#f4bd45" opacity=".88"/>
<path fill="#ef6b5a" stroke="#27364a" stroke-width="7" stroke-linejoin="round" d="M300 71l81 40-47 86-71-62z"/><path class="thin" d="M300 71l34 126M263 135l118-24"/>
<path class="thin" stroke="#7b6cc7" d="M331 197c-15 28-23 52-7 79 11 20-2 41-32 50"/>
<path class="thin" stroke="#ef6b5a" d="M329 245l-32-12M326 278l35 6"/>
<g transform="translate(99 181)"><ellipse class="shadow" cx="54" cy="140" rx="78" ry="15"/><circle class="skin" cx="52" cy="31" r="29"/><path class="hair" d="M22 28c4-29 37-40 61-16 2 17-9 30-24 38-7-17-22-23-37-22z"/><path class="smile" d="M44 38q8 8 18 0"/><rect x="27" y="61" width="55" height="79" rx="23" fill="#2b8fb8"/><path class="line" d="M30 88 90 56M78 86l93 38M42 139 21 194M70 139l34 52"/></g>
<path class="thin" d="M189 236c49-21 83-43 131-38"/>
</svg>
